<svg xmlns="http://www.w3.org/2000/svg" viewBox="0 0 400 100" width="400" height="100">
  <defs>
    <linearGradient id="hull" x1="0" y1="0" x2="0" y2="1">
      <stop offset="0%" stop-color="#5b6b7d"/>
      <stop offset="45%" stop-color="#3b4757"/>
      <stop offset="100%" stop-color="#232c38"/>
    </linearGradient>
    <linearGradient id="deck" x1="0" y1="0" x2="0" y2="1">
      <stop offset="0%" stop-color="#8492a3"/>
      <stop offset="100%" stop-color="#5a6779"/>
    </linearGradient>
    <linearGradient id="tower" x1="0" y1="0" x2="0" y2="1">
      <stop offset="0%" stop-color="#aab6c4"/>
      <stop offset="100%" stop-color="#6d7a8b"/>
    </linearGradient>
  </defs>
  <g>
    <path d="M 6 27.0 Q 2 50.0 6 73.0 L 347.3 81.0 Q 396 75.0 396 50.0 Q 396 25.0 347.3 19.0 Z" fill="url(#hull)"/>
    <path d="M 6 35.0 Q 2 50.0 6 65.0 L 360.9 73.0 Q 396 67.0 396 50.0 Q 396 33.0 360.9 27.0 Z" fill="url(#deck)" opacity="0.55"/>
    <rect x="168.0" y="26.0" width="62.0" height="48.0" rx="10" fill="url(#tower)"/>
    <rect x="184.0" y="12.0" width="20.0" height="18.0" rx="5" fill="#c8d3df"/>
    <circle cx="96.0" cy="50.0" r="15.0" fill="#6f7d8e"/>
    <rect x="93.0" y="20.0" width="6.0" height="30.0" rx="3" fill="#94a2b2"/>
    <circle cx="288.0" cy="50.0" r="15.0" fill="#6f7d8e"/>
    <rect x="285.0" y="20.0" width="6.0" height="30.0" rx="3" fill="#94a2b2"/>
  </g>
</svg>
